ModelForces
version=1
nRows=4
nColumns=157
inDegrees=no

This file contains the forces exerted on a model during a simulation.

A force is a generalized force, meaning that it can be either a force (N) or a torque (Nm).

Units are S.I. units (second, meters, Newtons, ...)
Angles are in degrees.

endheader
time	glut_med1_r	glut_med2_r	glut_med3_r	glut_min1_r	glut_min2_r	glut_min3_r	semimem_r	semiten_r	bifemlh_r	bifemsh_r	sar_r	add_long_r	add_brev_r	add_mag1_r	add_mag2_r	add_mag3_r	tfl_r	pect_r	grac_r	glut_max1_r	glut_max2_r	glut_max3_r	iliacus_r	psoas_r	quad_fem_r	gem_r	peri_r	rect_fem_r	vas_med_r	vas_int_r	vas_lat_r	med_gas_r	lat_gas_r	soleus_r	tib_post_r	flex_dig_r	flex_hal_r	tib_ant_r	per_brev_r	per_long_r	per_tert_r	ext_dig_r	ext_hal_r	glut_med1_l	glut_med2_l	glut_med3_l	glut_min1_l	glut_min2_l	glut_min3_l	semimem_l	semiten_l	bifemlh_l	bifemsh_l	sar_l	add_long_l	add_brev_l	add_mag1_l	add_mag2_l	add_mag3_l	tfl_l	pect_l	grac_l	glut_max1_l	glut_max2_l	glut_max3_l	iliacus_l	psoas_l	quad_fem_l	gem_l	peri_l	rect_fem_l	vas_med_l	vas_int_l	vas_lat_l	med_gas_l	lat_gas_l	soleus_l	tib_post_l	flex_dig_l	flex_hal_l	tib_ant_l	per_brev_l	per_long_l	per_tert_l	ext_dig_l	ext_hal_l	ercspn_r	ercspn_l	intobl_r	intobl_l	extobl_r	extobl_l	femur_lat_meniscii_r.femur_lat_r.force.X	femur_lat_meniscii_r.femur_lat_r.force.Y	femur_lat_meniscii_r.femur_lat_r.force.Z	femur_lat_meniscii_r.femur_lat_r.torque.X	femur_lat_meniscii_r.femur_lat_r.torque.Y	femur_lat_meniscii_r.femur_lat_r.torque.Z	femur_lat_meniscii_r.meniscus_lat_r.force.X	femur_lat_meniscii_r.meniscus_lat_r.force.Y	femur_lat_meniscii_r.meniscus_lat_r.force.Z	femur_lat_meniscii_r.meniscus_lat_r.torque.X	femur_lat_meniscii_r.meniscus_lat_r.torque.Y	femur_lat_meniscii_r.meniscus_lat_r.torque.Z	femur_med_meniscii_r.femur_med_r.force.X	femur_med_meniscii_r.femur_med_r.force.Y	femur_med_meniscii_r.femur_med_r.force.Z	femur_med_meniscii_r.femur_med_r.torque.X	femur_med_meniscii_r.femur_med_r.torque.Y	femur_med_meniscii_r.femur_med_r.torque.Z	femur_med_meniscii_r.meniscus_med_r.force.X	femur_med_meniscii_r.meniscus_med_r.force.Y	femur_med_meniscii_r.meniscus_med_r.force.Z	femur_med_meniscii_r.meniscus_med_r.torque.X	femur_med_meniscii_r.meniscus_med_r.torque.Y	femur_med_meniscii_r.meniscus_med_r.torque.Z	femur_med_tibia_r.tibia_upper_r.force.X	femur_med_tibia_r.tibia_upper_r.force.Y	femur_med_tibia_r.tibia_upper_r.force.Z	femur_med_tibia_r.tibia_upper_r.torque.X	femur_med_tibia_r.tibia_upper_r.torque.Y	femur_med_tibia_r.tibia_upper_r.torque.Z	femur_med_tibia_r.femur_med_r.force.X	femur_med_tibia_r.femur_med_r.force.Y	femur_med_tibia_r.femur_med_r.force.Z	femur_med_tibia_r.femur_med_r.torque.X	femur_med_tibia_r.femur_med_r.torque.Y	femur_med_tibia_r.femur_med_r.torque.Z	femur_lat_tibia_r.tibia_upper_r.force.X	femur_lat_tibia_r.tibia_upper_r.force.Y	femur_lat_tibia_r.tibia_upper_r.force.Z	femur_lat_tibia_r.tibia_upper_r.torque.X	femur_lat_tibia_r.tibia_upper_r.torque.Y	femur_lat_tibia_r.tibia_upper_r.torque.Z	femur_lat_tibia_r.femur_lat_r.force.X	femur_lat_tibia_r.femur_lat_r.force.Y	femur_lat_tibia_r.femur_lat_r.force.Z	femur_lat_tibia_r.femur_lat_r.torque.X	femur_lat_tibia_r.femur_lat_r.torque.Y	femur_lat_tibia_r.femur_lat_r.torque.Z	aACL_R	pACL_R	aPCL_R	pPCL_R	aMCL_R	mMCL_R	pMCL_R	aLCL_R	mLCL_R	pLCL_R	ground_prescribedForce_fx	ground_prescribedForce_fy	ground_prescribedForce_fz	ground_prescribedForce_px	ground_prescribedForce_py	ground_prescribedForce_pz
      0.00000000	     37.48087652	     28.28714471	     30.25598133	     13.28977762	     14.47626353	     15.91713841	     32.59884671	     20.14883361	     33.57013683	     34.76015022	      7.57027083	     27.93927808	     20.68957741	     14.51222487	     12.16230296	     19.66717628	     12.11993944	     11.16605282	      7.69155472	     18.12681708	     27.55933735	     20.56469162	     63.94906620	     55.74758807	     18.09791099	      9.16719286	     20.03897647	     55.77356399	     40.53736492	     41.78775184	     52.95809815	     58.17532718	     27.85185913	    152.72720615	     92.44658902	     14.93332009	     15.26895791	     41.82851940	     21.62523106	     46.40594865	      8.86060096	     25.04818486	      7.96045570	     37.48087652	     28.28714471	     30.25598133	     13.28977762	     14.47626353	     15.91713841	     42.06683902	     20.39635155	     37.67631238	     36.01822118	      7.59254209	     27.93927808	     20.68957741	     14.51222487	     12.16230296	     19.66717628	     12.58139899	     11.16605282	      7.78214370	     18.12681708	     27.55933735	     20.56469162	     63.94906620	     55.74758807	     18.09791099	      9.16719286	     20.03897647	     52.59637061	     32.48786114	     37.22481259	     39.87514307	     67.71424671	     31.64857027	    152.72720615	     92.44658902	     14.93332009	     15.26895791	     41.82851940	     21.62523106	     46.40594865	      8.86060096	     25.04818486	      7.96045570	    124.99446086	    124.99446086	     44.97041513	     44.97041513	     60.98287244	     60.98287244	    616.73962164	    971.59860641	    141.44445945	    -82.67322275	     15.25716547	    255.66589114	   -616.73962164	   -971.59860641	   -141.44445945	     32.16588577	    -18.23971769	    -14.95148201	      0.00000000	      0.00000000	      0.00000000	      0.00000000	      0.00000000	      0.00000000	      0.00000000	      0.00000000	      0.00000000	      0.00000000	      0.00000000	      0.00000000	      0.00000000	      0.00000000	      0.00000000	      0.00000000	      0.00000000	      0.00000000	      0.00000000	      0.00000000	      0.00000000	      0.00000000	      0.00000000	      0.00000000	      0.00000000	      0.00000000	      0.00000000	      0.00000000	      0.00000000	      0.00000000	      0.00000000	      0.00000000	      0.00000000	      0.00000000	      0.00000000	      0.00000000	      8.97713351	      0.96499260	      0.19485120	     75.99576998	      0.22366969	      8.10997858	      6.83469985	      0.00000000	      0.00000000	      0.00000000	    106.25000000	    -28.47000000	      0.00000000	      0.03000000	     -0.03000000	      0.00000000
      0.00022505	     37.48035820	     28.28627082	     30.25520420	     13.28868027	     14.47566555	     15.91690747	     32.63306923	     20.17205958	     33.60452656	     34.91553155	      7.59294621	     27.93857232	     20.68696262	     14.51178163	     12.16203948	     19.66696120	     12.13225240	     11.16537257	      7.71063966	     18.12635310	     27.55864334	     20.56425716	     63.94787196	     55.74690566	     18.09711664	      9.16708637	     20.03888372	     55.82878618	     40.62867500	     41.88796691	     53.05753818	     58.23031525	     27.88066422	    152.69947216	     92.45435497	     14.93699950	     15.27210503	     41.84237052	     21.61648719	     46.39686733	      8.85959736	     25.04509251	      7.95997280	     37.48035820	     28.28627082	     30.25520420	     13.28868027	     14.47566555	     15.91690747	     42.06660933	     20.39603874	     37.67605564	     36.01668932	      7.59178806	     27.93857232	     20.68696262	     14.51178163	     12.16203948	     19.66696120	     12.58134528	     11.16537257	      7.78172124	     18.12635310	     27.55864334	     20.56425716	     63.94787196	     55.74690566	     18.09711664	      9.16708637	     20.03888372	     52.59598155	     32.48729085	     37.22424813	     39.87456896	     67.71402109	     31.64846294	    152.72650367	     92.44641226	     14.93335597	     15.26898215	     41.82815269	     21.62509979	     46.40581786	      8.86046114	     25.04793545	      7.96035557	    124.98491981	    124.98491981	     44.96954384	     44.96954384	     60.98192868	     60.98192868	    376.92135927	    674.06620589	    104.35535162	    -60.01138937	      9.36734877	    155.91013791	   -376.92135927	   -674.06620589	   -104.35535162	     22.58032931	    -11.26170629	     -8.47650673	      0.00000000	      0.00000000	      0.00000000	      0.00000000	      0.00000000	      0.00000000	      0.00000000	      0.00000000	      0.00000000	      0.00000000	      0.00000000	      0.00000000	      0.00000000	      0.00000000	      0.00000000	      0.00000000	      0.00000000	      0.00000000	      0.00000000	      0.00000000	      0.00000000	      0.00000000	      0.00000000	      0.00000000	      0.00000000	      0.00000000	      0.00000000	      0.00000000	      0.00000000	      0.00000000	      0.00000000	      0.00000000	      0.00000000	      0.00000000	      0.00000000	      0.00000000	     12.28536699	      4.64354412	      5.85506150	     90.92775727	      9.45088257	     17.44620856	     15.84979559	      0.00000000	      0.00000000	      0.00000000	    106.25000000	    -28.47000000	      0.00000000	      0.03000000	     -0.03000000	      0.00000000
      0.00054346	     37.47785910	     28.28208957	     30.25147716	     13.28355122	     14.47281893	     15.91579430	     32.72332449	     20.23224115	     33.69370350	     35.33142677	      7.64779623	     27.93518705	     20.67498283	     14.50966061	     12.16077363	     19.66592287	     12.16802063	     11.16216206	      7.75854652	     18.12412792	     27.55531435	     20.56216933	     63.94213728	     55.74361348	     18.09333824	      9.16657281	     20.03843471	     55.97386175	     40.86380976	     42.15368326	     53.31831308	     58.31610224	     27.93139804	    152.38331686	     92.46819225	     14.95370671	     15.28469395	     41.95823479	     21.57248522	     46.34757193	      8.87072245	     25.04521499	      7.96289513	     37.47785910	     28.28208957	     30.25147716	     13.28355122	     14.47281893	     15.91579430	     42.06549775	     20.39453150	     37.67481393	     36.00939844	      7.58829047	     27.93518705	     20.67498283	     14.50966061	     12.16077363	     19.66592287	     12.58108525	     11.16216206	      7.77972118	     18.12412792	     27.55531435	     20.56216933	     63.94213728	     55.74361348	     18.09333824	      9.16657281	     20.03843471	     52.59410031	     32.48454595	     37.22152837	     39.87180177	     67.71292814	     31.64794300	    152.72310273	     92.44555569	     14.93352858	     15.26909837	     41.82638057	     21.62446462	     46.40518411	      8.85978772	     25.04673081	      7.95987226	    124.94019785	    124.94019785	     44.96535321	     44.96535321	     60.97739458	     60.97739458	    286.97027977	    569.17010676	     84.65569914	    -49.29275924	      7.18439751	    118.48312660	   -286.97027977	   -569.17010676	    -84.65569914	     19.01572975	     -8.64746434	     -6.01176767	      0.00000000	      0.00000000	      0.00000000	      0.00000000	      0.00000000	      0.00000000	      0.00000000	      0.00000000	      0.00000000	      0.00000000	      0.00000000	      0.00000000	      0.00000000	      0.00000000	      0.00000000	      0.00000000	      0.00000000	      0.00000000	      0.00000000	      0.00000000	      0.00000000	      0.00000000	      0.00000000	      0.00000000	      0.00000000	      0.00000000	      0.00000000	      0.00000000	      0.00000000	      0.00000000	      0.00000000	      0.00000000	      0.00000000	      0.00000000	      0.00000000	      0.00000000	     13.10628633	      5.73484796	      7.67164257	     96.22122632	     11.15866854	     19.25563072	     17.44873446	      0.00000000	      0.00000000	      0.00000000	    106.25000000	    -28.47000000	      0.00000000	      0.03000000	     -0.03000000	      0.00000000
      0.00094020	     37.47186525	     28.27216846	     30.24260474	     13.27176816	     14.46611238	     15.91312555	     32.83153135	     20.30163716	     33.79888968	     35.84979228	      7.70169201	     27.92712634	     20.64819570	     14.50462712	     12.15775272	     19.66342802	     12.21925449	     11.15468688	      7.80999350	     18.11883083	     27.54738753	     20.55718509	     63.92846143	     55.73571111	     18.08444616	      9.16534062	     20.03735151	     56.14721002	     41.12892449	     42.47406255	     53.62578498	     58.26232929	     27.92566356	    151.36423722	     92.46860761	     14.99259908	     15.31140414	     42.30850286	     21.46354414	     46.22042913	      8.91986433	     25.06695110	      7.97748707	     37.47186525	     28.27216846	     30.24260474	     13.27176816	     14.46611238	     15.91312555	     42.06281774	     20.39091979	     37.67182267	     35.99222529	      7.58033844	     27.92712634	     20.64819570	     14.50462712	     12.15775272	     19.66342802	     12.58045801	     11.15468688	      7.77504481	     18.11883083	     27.54738753	     20.55718509	     63.92846143	     55.73571111	     18.08444616	      9.16534062	     20.03735151	     52.58956993	     32.47797856	     37.21501123	     39.86516797	     67.71028935	     31.64668770	    152.71489808	     92.44348655	     14.93394112	     15.26937467	     41.82211663	     21.62293366	     46.40365338	      8.85817490	     25.04383476	      7.95871146	    124.83705817	    124.83705817	     44.95533715	     44.95533715	     60.96657439	     60.96657439	    261.91077391	    548.41403647	     74.56115782	    -44.62133608	      6.60301222	    108.03562524	   -261.91077391	   -548.41403647	    -74.56115782	     18.14069230	     -7.92781620	     -5.27291035	      0.00000000	      0.00000000	      0.00000000	      0.00000000	      0.00000000	      0.00000000	      0.00000000	      0.00000000	      0.00000000	      0.00000000	      0.00000000	      0.00000000	      0.00000000	      0.00000000	      0.00000000	      0.00000000	      0.00000000	      0.00000000	      0.00000000	      0.00000000	      0.00000000	      0.00000000	      0.00000000	      0.00000000	      0.00000000	      0.00000000	      0.00000000	      0.00000000	      0.00000000	      0.00000000	      0.00000000	      0.00000000	      0.00000000	      0.00000000	      0.00000000	      0.00000000	     12.74941776	      5.58068894	      7.86146069	     97.47915972	      9.60875624	     17.79499455	     15.83869959	      0.00000000	      0.00000000	      0.00000000	    106.25000000	    -28.47000000	      0.00000000	      0.03000000	     -0.03000000	      0.00000000
